<svg width="45" height="40" viewBox="0 0 45 40" fill="none" xmlns="http://www.w3.org/2000/svg">
<path d="M22.3595 39.3135C31.1723 39.3135 38.3166 32.1692 38.3166 23.3564V11.7494C38.3166 8.23801 35.4701 5.39151 31.9587 5.39151H12.7603C9.24884 5.39151 6.40234 8.23801 6.40234 11.7494V23.3563C6.40234 32.1692 13.5466 39.3135 22.3595 39.3135Z" fill="#634C9F"/>
<path d="M15.0287 24.2418C15.3612 25.7379 16.3586 27.7325 17.5222 28.0649C24.2057 30.3436 31.3059 30.2625 38.3151 30.3584V11.7491C38.3151 8.23767 35.4686 5.39117 31.9571 5.39117H12.7587C10.8622 5.39117 9.16086 6.22248 7.99609 7.53935C13.5001 10.889 13.3089 18.3003 15.0287 24.2418Z" fill="#FACC15"/>
<path d="M36.7976 31.2842C36.6699 31.2842 36.5415 31.279 36.4123 31.2686L20.0381 29.9319C17.5265 29.7268 15.4061 27.9523 14.7617 25.5164L11.5694 13.4502C11.0034 11.3046 10.4179 9.08632 7.9167 8.41426L0.79662 6.95045C0.257208 6.83957 -0.090377 6.3123 0.0206638 5.77272C0.131538 5.23314 0.659649 4.88572 1.1984 4.9966L8.39926 6.47853C12.0463 7.43833 12.8854 10.619 13.4982 12.9413L13.5391 13.0966L16.6901 25.0062C17.1188 26.6268 18.5294 27.8072 20.2003 27.9438L36.5747 29.2805C37.8766 29.3868 39.0729 28.55 39.4202 27.2914L42.4368 16.3567L21.5278 14.639C21.0755 14.6023 20.6488 14.779 20.3559 15.1249C20.063 15.471 19.9588 15.9213 20.07 16.3608L21.0032 20.0516C21.3117 21.2714 22.36 22.1757 23.612 22.3018L33.4695 23.2952C33.9729 23.3459 34.4327 23.0462 34.5906 22.567C34.6927 22.2565 34.6486 21.9215 34.4694 21.6481C34.2901 21.3746 34.0005 21.2004 33.6748 21.1703L25.3966 20.4047C24.8483 20.354 24.4448 19.8683 24.4955 19.3197C24.5462 18.7713 25.0293 18.3675 25.5805 18.4184L33.8587 19.1841C34.7927 19.2705 35.6234 19.77 36.1377 20.5546C36.6518 21.339 36.7785 22.3002 36.4851 23.191C36.0321 24.5662 34.7081 25.4253 33.2696 25.2798L23.412 24.2864C21.328 24.0765 19.5828 22.5711 19.0693 20.5406L18.1361 16.8499C17.865 15.7782 18.1193 14.6798 18.8336 13.8361C19.5479 12.9924 20.5893 12.561 21.6911 12.6509L45 14.5657L41.3431 27.8218C40.7758 29.8779 38.9001 31.284 36.7976 31.2842Z" fill="#634C9F"/>
<path d="M22.3716 33.7409C22.3716 35.2404 21.156 36.4561 19.6564 36.4561C18.157 36.4561 16.9414 35.2404 16.9414 33.7409C16.9414 32.2413 18.157 31.0259 19.6564 31.0259C21.156 31.0259 22.3716 32.2413 22.3716 33.7409Z" fill="#DC2626"/>
<path d="M35.8666 34.5665C35.8666 35.4726 35.1322 36.207 34.2263 36.207C33.3203 36.207 32.5859 35.4726 32.5859 34.5665C32.5859 33.6606 33.3203 32.9262 34.2263 32.9262C35.1322 32.9262 35.8666 33.6606 35.8666 34.5665Z" fill="#DC2626"/>
<path d="M19.5192 9.61451C19.5192 10.9304 18.4525 11.9971 17.1366 11.9971C15.8208 11.9971 14.7539 10.9304 14.7539 9.61451C14.7539 8.29865 15.8208 7.23179 17.1366 7.23179C18.4525 7.23179 19.5192 8.29865 19.5192 9.61451Z" fill="#F25321"/>
<path d="M23.9375 3.90725C23.9375 5.68606 22.4956 7.12793 20.7168 7.12793C18.9381 7.12793 17.4961 5.68606 17.4961 3.90725C17.4961 2.1286 18.9381 0.686566 20.7168 0.686566C22.4956 0.686566 23.9375 2.1286 23.9375 3.90725Z" fill="#634C9F"/>
<path d="M23.1557 8.81959C23.1557 9.44178 22.6514 9.94629 22.029 9.94629C21.4068 9.94629 20.9023 9.44178 20.9023 8.81959C20.9023 8.1974 21.4068 7.69289 22.029 7.69289C22.6514 7.69289 23.1557 8.1974 23.1557 8.81959Z" fill="#634C9F"/>
<path d="M30.1459 5.54137C30.1459 6.97958 28.9798 8.14551 27.5416 8.14551C26.1033 8.14551 24.9375 6.97958 24.9375 5.54137C24.9375 4.10299 26.1033 2.93707 27.5416 2.93707C28.9798 2.93707 30.1459 4.10299 30.1459 5.54137Z" fill="#F25321"/>
<path d="M32.649 10.4314C32.649 11.6019 31.7 12.5508 30.5296 12.5508C29.359 12.5508 28.4102 11.6019 28.4102 10.4314C28.4102 9.26095 29.359 8.31195 30.5296 8.31195C31.7 8.31195 32.649 9.26095 32.649 10.4314Z" fill="#F25321"/>
<path d="M41.6451 11.3591C41.6451 12.5297 40.6961 13.4785 39.5257 13.4785C38.3551 13.4785 37.4062 12.5297 37.4062 11.3591C37.4062 10.1887 38.3551 9.23968 39.5257 9.23968C40.6961 9.23968 41.6451 10.1887 41.6451 11.3591Z" fill="#634C9F"/>
<path d="M26.9118 10.8048C26.9118 11.5853 26.2793 12.2178 25.4989 12.2178C24.7186 12.2178 24.0859 11.5853 24.0859 10.8048C24.0859 10.0246 24.7186 9.39188 25.4989 9.39188C26.2793 9.39188 26.9118 10.0246 26.9118 10.8048Z" fill="#634C9F"/>
<path d="M35.4721 5.67996C35.4721 6.65922 34.6782 7.45312 33.6989 7.45312C32.7199 7.45312 31.9258 6.65922 31.9258 5.67996C31.9258 4.70071 32.7199 3.9068 33.6989 3.9068C34.6782 3.9068 35.4721 4.70071 35.4721 5.67996Z" fill="#634C9F"/>
<path d="M36.2204 11.3595C36.2204 12.1398 35.5879 12.7725 34.8075 12.7725C34.0272 12.7725 33.3945 12.1398 33.3945 11.3595C33.3945 10.5792 34.0272 9.94657 34.8075 9.94657C35.5879 9.94657 36.2204 10.5792 36.2204 11.3595Z" fill="#634C9F"/>
<path d="M37.8591 8.14555C37.8591 8.80348 37.3257 9.33691 36.6678 9.33691C36.0098 9.33691 35.4766 8.80348 35.4766 8.14555C35.4766 7.48762 36.0098 6.95436 36.6678 6.95436C37.3257 6.95436 37.8591 7.48762 37.8591 8.14555Z" fill="#F25321"/>
</svg>
